<svg width="50" height="50" viewBox="0 0 50 50" fill="none" xmlns="http://www.w3.org/2000/svg">
<path fill-rule="evenodd" clip-rule="evenodd" d="M32.8938 23.735C33.7208 21.7367 34.1772 19.5458 34.1772 17.2482C34.1772 7.88086 26.5907 0.287109 17.2324 0.287109C7.87404 0.287109 0.287598 7.88086 0.287598 17.2482C0.287598 19.5458 0.743996 21.7367 1.57099 23.735C4.11572 17.5861 10.1694 13.2606 17.2324 13.2606C24.2954 13.2606 30.3491 17.5861 32.8938 23.735Z" fill="#AB0B4B"/>
<path fill-rule="evenodd" clip-rule="evenodd" d="M16.5427 25.7009C15.7157 27.6991 15.2593 29.8899 15.2593 32.1874C15.2593 41.5548 22.8458 49.1486 32.2041 49.1486C41.5625 49.1486 49.1489 41.5548 49.1489 32.1874C49.1489 29.8899 48.6926 27.6991 47.8656 25.7009C45.3209 31.8498 39.2672 36.1754 32.2041 36.1754C25.1411 36.1754 19.0873 31.8498 16.5427 25.7009Z" fill="#AB0B4B"/>
<path fill-rule="evenodd" clip-rule="evenodd" d="M25.7241 32.9249C27.7203 33.7526 29.9089 34.2094 32.2041 34.2094C41.5625 34.2094 49.1489 26.6156 49.1489 17.2482C49.1489 7.88086 41.5625 0.287109 32.2041 0.287109C29.9088 0.287109 27.7201 0.743926 25.7238 1.57169C31.867 4.11876 36.1885 10.1784 36.1885 17.2484C36.1885 24.3182 31.8671 30.3778 25.7241 32.9249Z" fill="#AB0B4B"/>
<path fill-rule="evenodd" clip-rule="evenodd" d="M23.7129 16.5109C21.7165 15.6832 19.5277 15.2263 17.2324 15.2263C7.87404 15.2263 0.287598 22.8201 0.287598 32.1874C0.287598 41.5548 7.87404 49.1486 17.2324 49.1486C19.5277 49.1486 21.7165 48.6917 23.7129 47.8639C17.5699 45.3168 13.2485 39.2572 13.2485 32.1874C13.2485 25.1176 17.5699 19.0581 23.7129 16.5109Z" fill="#AB0B4B"/>
</svg>
