<svg width="82" height="82" viewBox="0 0 82 82" fill="none" xmlns="http://www.w3.org/2000/svg">
<rect x="0.53833" y="0.139618" width="81.4357" height="81.4357" rx="15" fill="white"/>
<path fill-rule="evenodd" clip-rule="evenodd" d="M49.4321 39.8746C50.2591 37.8763 50.7155 35.6854 50.7155 33.3878C50.7155 24.0205 43.1291 16.4267 33.7707 16.4267C24.4124 16.4267 16.8259 24.0205 16.8259 33.3878C16.8259 35.6854 17.2823 37.8763 18.1093 39.8746C20.6541 33.7257 26.7077 29.4002 33.7707 29.4002C40.8337 29.4002 46.8874 33.7257 49.4321 39.8746Z" fill="#AB0B4B"/>
<path fill-rule="evenodd" clip-rule="evenodd" d="M33.081 41.8405C32.254 43.8387 31.7977 46.0295 31.7977 48.3271C31.7977 57.6944 39.3841 65.2882 48.7425 65.2882C58.1008 65.2882 65.6873 57.6944 65.6873 48.3271C65.6873 46.0295 65.2309 43.8387 64.4039 41.8405C61.8593 47.9895 55.8055 52.315 48.7425 52.315C41.6794 52.315 35.6257 47.9895 33.081 41.8405Z" fill="#AB0B4B"/>
<path fill-rule="evenodd" clip-rule="evenodd" d="M42.2624 49.0645C44.2586 49.8922 46.4473 50.349 48.7425 50.349C58.1008 50.349 65.6873 42.7552 65.6873 33.3878C65.6873 24.0205 58.1008 16.4267 48.7425 16.4267C46.4472 16.4267 44.2584 16.8835 42.2621 17.7113C48.4053 20.2584 52.7268 26.318 52.7268 33.388C52.7268 40.4578 48.4054 46.5174 42.2624 49.0645Z" fill="#AB0B4B"/>
<path fill-rule="evenodd" clip-rule="evenodd" d="M40.2512 32.6506C38.2548 31.8228 36.0661 31.3659 33.7707 31.3659C24.4124 31.3659 16.8259 38.9597 16.8259 48.3271C16.8259 57.6944 24.4124 65.2882 33.7707 65.2882C36.0661 65.2882 38.2548 64.8313 40.2512 64.0036C34.1082 61.4564 29.7869 55.3969 29.7869 48.3271C29.7869 41.2573 34.1082 35.1977 40.2512 32.6506Z" fill="#AB0B4B"/>
</svg>
