<svg width="82" height="82" viewBox="0 0 82 82" fill="none" xmlns="http://www.w3.org/2000/svg">
<rect width="81.4357" height="81.4357" rx="15" fill="white"/>
<path fill-rule="evenodd" clip-rule="evenodd" d="M48.8938 39.735C49.7208 37.7367 50.1772 35.5458 50.1772 33.2482C50.1772 23.8809 42.5907 16.2871 33.2324 16.2871C23.874 16.2871 16.2876 23.8809 16.2876 33.2482C16.2876 35.5458 16.744 37.7367 17.571 39.735C20.1157 33.5861 26.1694 29.2606 33.2324 29.2606C40.2954 29.2606 46.3491 33.5861 48.8938 39.735Z" fill="#090C08"/>
<path fill-rule="evenodd" clip-rule="evenodd" d="M32.5427 41.7009C31.7157 43.6991 31.2593 45.8899 31.2593 48.1874C31.2593 57.5548 38.8458 65.1486 48.2041 65.1486C57.5625 65.1486 65.1489 57.5548 65.1489 48.1874C65.1489 45.8899 64.6926 43.6991 63.8656 41.7009C61.3209 47.8498 55.2672 52.1754 48.2041 52.1754C41.1411 52.1754 35.0873 47.8498 32.5427 41.7009Z" fill="#090C08"/>
<path fill-rule="evenodd" clip-rule="evenodd" d="M41.7241 48.9249C43.7203 49.7526 45.9089 50.2094 48.2041 50.2094C57.5625 50.2094 65.1489 42.6156 65.1489 33.2482C65.1489 23.8809 57.5625 16.2871 48.2041 16.2871C45.9088 16.2871 43.7201 16.7439 41.7238 17.5717C47.867 20.1188 52.1885 26.1784 52.1885 33.2484C52.1885 40.3182 47.8671 46.3778 41.7241 48.9249Z" fill="#090C08"/>
<path fill-rule="evenodd" clip-rule="evenodd" d="M39.7129 32.5109C37.7165 31.6832 35.5277 31.2263 33.2324 31.2263C23.874 31.2263 16.2876 38.8201 16.2876 48.1874C16.2876 57.5548 23.874 65.1486 33.2324 65.1486C35.5277 65.1486 37.7165 64.6917 39.7129 63.8639C33.5699 61.3168 29.2485 55.2572 29.2485 48.1874C29.2485 41.1176 33.5699 35.0581 39.7129 32.5109Z" fill="#090C08"/>
</svg>
