<svg width="221" height="55" viewBox="0 0 221 55" fill="none" xmlns="http://www.w3.org/2000/svg">
<rect x="0.871094" y="2.72211" width="48.8614" height="48.8614" rx="10" fill="#AB0B4B"/>
<path fill-rule="evenodd" clip-rule="evenodd" d="M30.2082 26.5633C30.7044 25.3642 30.9783 24.0497 30.9783 22.6711C30.9783 17.0506 26.4264 12.4944 20.8114 12.4944C15.1964 12.4944 10.6445 17.0506 10.6445 22.6711C10.6445 24.0495 10.9183 25.3639 11.4144 26.5628C12.9413 22.8735 16.5735 20.2783 20.8112 20.2783C25.0491 20.2783 28.6814 22.8738 30.2082 26.5633Z" fill="white"/>
<path fill-rule="evenodd" clip-rule="evenodd" d="M20.3972 27.7427C19.901 28.9416 19.6272 30.2561 19.6272 31.6346C19.6272 37.255 24.1791 41.8113 29.7941 41.8113C35.4091 41.8113 39.9609 37.255 39.9609 31.6346C39.9609 30.256 39.6871 28.9415 39.1909 27.7425C37.6641 31.4319 34.0318 34.0272 29.794 34.0272C25.5562 34.0272 21.924 31.432 20.3972 27.7427Z" fill="white"/>
<path fill-rule="evenodd" clip-rule="evenodd" d="M25.906 32.0771C27.1037 32.5737 28.4169 32.8478 29.7941 32.8478C35.4091 32.8478 39.9609 28.2915 39.9609 22.6711C39.9609 17.0507 35.4091 12.4944 29.7941 12.4944C28.4169 12.4944 27.1036 12.7685 25.9058 13.2652C29.5917 14.7934 32.1846 18.4292 32.1846 22.6712C32.1846 26.9131 29.5918 30.5488 25.906 32.0771Z" fill="white"/>
<path fill-rule="evenodd" clip-rule="evenodd" d="M24.6994 22.2287C23.5016 21.732 22.1884 21.4579 20.8112 21.4579C15.1962 21.4579 10.6443 26.0142 10.6443 31.6346C10.6443 37.255 15.1962 41.8113 20.8112 41.8113C22.1883 41.8113 23.5016 41.5372 24.6994 41.0405C21.0135 39.5123 18.4207 35.8765 18.4207 31.6346C18.4207 27.3927 21.0136 23.757 24.6994 22.2287Z" fill="white"/>
<path d="M79.1364 14.2048L78.5604 18.7408H72.4044V39.1528H66.5004V18.7408H60.0564V14.2048H79.1364ZM90.684 19.4968C91.38 19.4968 92.016 19.5808 92.592 19.7488L91.692 25.2568C90.972 25.0888 90.396 25.0048 89.964 25.0048C88.836 25.0048 87.972 25.4008 87.372 26.1928C86.796 26.9608 86.34 28.1248 86.004 29.6848V39.1528H80.316V20.0368H85.284L85.752 23.7448C86.184 22.4248 86.832 21.3928 87.696 20.6488C88.584 19.8808 89.58 19.4968 90.684 19.4968ZM108.692 33.6088C108.692 34.3288 108.788 34.8568 108.98 35.1928C109.196 35.5288 109.532 35.7808 109.988 35.9488L108.8 39.6568C107.624 39.5608 106.664 39.3088 105.92 38.9008C105.176 38.4688 104.6 37.7968 104.192 36.8848C102.944 38.8048 101.024 39.7648 98.4316 39.7648C96.5356 39.7648 95.0236 39.2128 93.8956 38.1088C92.7676 37.0048 92.2036 35.5648 92.2036 33.7888C92.2036 31.7008 92.9716 30.1048 94.5076 29.0008C96.0436 27.8968 98.2636 27.3448 101.168 27.3448H103.112V26.5168C103.112 25.3888 102.872 24.6208 102.392 24.2128C101.912 23.7808 101.072 23.5648 99.8716 23.5648C99.2476 23.5648 98.4916 23.6608 97.6036 23.8528C96.7156 24.0208 95.8036 24.2608 94.8676 24.5728L93.5716 20.8288C94.7716 20.3728 95.9956 20.0248 97.2436 19.7848C98.5156 19.5448 99.6916 19.4248 100.772 19.4248C103.508 19.4248 105.512 19.9888 106.784 21.1168C108.056 22.2448 108.692 23.9368 108.692 26.1928V33.6088ZM100.088 35.6968C101.384 35.6968 102.392 35.0848 103.112 33.8608V30.4768H101.708C100.412 30.4768 99.4396 30.7048 98.7916 31.1608C98.1676 31.6168 97.8556 32.3248 97.8556 33.2848C97.8556 34.0528 98.0476 34.6528 98.4316 35.0848C98.8396 35.4928 99.3916 35.6968 100.088 35.6968ZM124.418 19.4248C126.074 19.4248 127.37 19.9288 128.306 20.9368C129.242 21.9448 129.71 23.3608 129.71 25.1848V39.1528H124.022V26.1568C124.022 25.1968 123.866 24.5368 123.554 24.1768C123.266 23.7928 122.822 23.6008 122.222 23.6008C121.07 23.6008 119.966 24.4288 118.91 26.0848V39.1528H113.222V20.0368H118.19L118.586 22.3048C119.402 21.3448 120.278 20.6248 121.214 20.1448C122.174 19.6648 123.242 19.4248 124.418 19.4248ZM140.732 19.4248C142.1 19.4248 143.384 19.6288 144.584 20.0368C145.784 20.4448 146.84 21.0208 147.752 21.7648L145.664 24.9688C144.104 23.9848 142.532 23.4928 140.948 23.4928C140.204 23.4928 139.628 23.6248 139.22 23.8888C138.836 24.1288 138.644 24.4768 138.644 24.9328C138.644 25.2928 138.728 25.5928 138.896 25.8328C139.088 26.0488 139.46 26.2768 140.012 26.5168C140.564 26.7568 141.416 27.0448 142.568 27.3808C144.56 27.9568 146.036 28.7128 146.996 29.6488C147.98 30.5608 148.472 31.8328 148.472 33.4648C148.472 34.7608 148.1 35.8888 147.356 36.8488C146.612 37.7848 145.592 38.5048 144.296 39.0088C143 39.5128 141.56 39.7648 139.976 39.7648C138.368 39.7648 136.868 39.5128 135.476 39.0088C134.108 38.5048 132.944 37.8088 131.984 36.9208L134.756 33.8248C136.364 35.0728 138.056 35.6968 139.832 35.6968C140.696 35.6968 141.368 35.5408 141.848 35.2288C142.352 34.9168 142.604 34.4728 142.604 33.8968C142.604 33.4408 142.508 33.0808 142.316 32.8168C142.124 32.5528 141.752 32.3128 141.2 32.0968C140.648 31.8568 139.772 31.5688 138.572 31.2328C136.676 30.6808 135.26 29.9128 134.324 28.9288C133.388 27.9448 132.92 26.7208 132.92 25.2568C132.92 24.1528 133.232 23.1688 133.856 22.3048C134.504 21.4168 135.416 20.7208 136.592 20.2168C137.792 19.6888 139.172 19.4248 140.732 19.4248ZM166.242 33.6088C166.242 34.3288 166.338 34.8568 166.53 35.1928C166.746 35.5288 167.082 35.7808 167.538 35.9488L166.35 39.6568C165.174 39.5608 164.214 39.3088 163.47 38.9008C162.726 38.4688 162.15 37.7968 161.742 36.8848C160.494 38.8048 158.574 39.7648 155.982 39.7648C154.086 39.7648 152.574 39.2128 151.446 38.1088C150.318 37.0048 149.754 35.5648 149.754 33.7888C149.754 31.7008 150.522 30.1048 152.058 29.0008C153.594 27.8968 155.814 27.3448 158.718 27.3448H160.662V26.5168C160.662 25.3888 160.422 24.6208 159.942 24.2128C159.462 23.7808 158.622 23.5648 157.422 23.5648C156.798 23.5648 156.042 23.6608 155.154 23.8528C154.266 24.0208 153.354 24.2608 152.418 24.5728L151.122 20.8288C152.322 20.3728 153.546 20.0248 154.794 19.7848C156.066 19.5448 157.242 19.4248 158.322 19.4248C161.058 19.4248 163.062 19.9888 164.334 21.1168C165.606 22.2448 166.242 23.9368 166.242 26.1928V33.6088ZM157.638 35.6968C158.934 35.6968 159.942 35.0848 160.662 33.8608V30.4768H159.258C157.962 30.4768 156.99 30.7048 156.342 31.1608C155.718 31.6168 155.406 32.3248 155.406 33.2848C155.406 34.0528 155.598 34.6528 155.982 35.0848C156.39 35.4928 156.942 35.6968 157.638 35.6968ZM179.053 19.4248C180.373 19.4248 181.561 19.6168 182.617 20.0008C183.673 20.3848 184.669 20.9728 185.605 21.7648L183.157 25.1488C181.957 24.2368 180.745 23.7808 179.521 23.7808C178.249 23.7808 177.289 24.2488 176.641 25.1848C175.993 26.1208 175.669 27.6328 175.669 29.7208C175.669 31.7368 175.993 33.1648 176.641 34.0048C177.289 34.8448 178.225 35.2648 179.449 35.2648C180.097 35.2648 180.685 35.1688 181.213 34.9768C181.741 34.7608 182.377 34.4248 183.121 33.9688L185.605 37.4968C183.709 39.0088 181.561 39.7648 179.161 39.7648C177.217 39.7648 175.537 39.3568 174.121 38.5408C172.705 37.7008 171.613 36.5368 170.845 35.0488C170.077 33.5368 169.693 31.7728 169.693 29.7568C169.693 27.7408 170.077 25.9528 170.845 24.3928C171.613 22.8328 172.705 21.6208 174.121 20.7568C175.537 19.8688 177.181 19.4248 179.053 19.4248ZM199.988 38.2528C199.292 38.7328 198.476 39.1048 197.54 39.3688C196.628 39.6328 195.716 39.7648 194.804 39.7648C190.628 39.7408 188.54 37.4368 188.54 32.8528V23.9968H185.84V20.0368H188.54V15.8968L194.228 15.2488V20.0368H198.62L198.008 23.9968H194.228V32.7808C194.228 33.6688 194.372 34.3048 194.66 34.6888C194.948 35.0728 195.404 35.2648 196.028 35.2648C196.676 35.2648 197.36 35.0608 198.08 34.6528L199.988 38.2528ZM213.514 25.6888L220.714 39.1528H214.27L209.986 29.6488L205.774 39.1528H199.51L206.494 25.9048L200.05 14.2048H206.458L210.058 22.1968L213.838 14.2048H220.102L213.514 25.6888Z" fill="#AB0B4B"/>
</svg>
